<?xml version="1.0" encoding="UTF-8" standalone="no"?>
<!-- Created with Inkscape (http://www.inkscape.org/) -->

<svg
   xmlns:dc="http://purl.org/dc/elements/1.1/"
   xmlns:cc="http://creativecommons.org/ns#"
   xmlns:rdf="http://www.w3.org/1999/02/22-rdf-syntax-ns#"
   xmlns:svg="http://www.w3.org/2000/svg"
   xmlns="http://www.w3.org/2000/svg"
   xmlns:xlink="http://www.w3.org/1999/xlink"
   xmlns:sodipodi="http://sodipodi.sourceforge.net/DTD/sodipodi-0.dtd"
   xmlns:inkscape="http://www.inkscape.org/namespaces/inkscape"
   sodipodi:docname="logo.svg"
   inkscape:version="0.91 r13725"
   version="1.1"
   id="svg3468"
   viewBox="0 0 48.000001 48.000001"
   height="48"
   width="48">
  <sodipodi:namedview
     inkscape:window-maximized="0"
     inkscape:window-y="18"
     inkscape:window-x="0"
     inkscape:window-height="728"
     inkscape:window-width="1366"
     units="px"
     fit-margin-bottom="0"
     fit-margin-right="0"
     fit-margin-left="0"
     fit-margin-top="0"
     showgrid="true"
     inkscape:current-layer="layer1"
     inkscape:document-units="px"
     inkscape:cy="19.640227"
     inkscape:cx="24.009929"
     inkscape:zoom="8"
     inkscape:pageshadow="2"
     inkscape:pageopacity="0.0"
     borderopacity="1.0"
     bordercolor="#666666"
     pagecolor="#ffffff"
     id="base"
     showguides="false">
    <inkscape:grid
       id="grid4314"
       type="xygrid" />
  </sodipodi:namedview>
  <defs
     id="defs3470">
    <linearGradient
       inkscape:collect="always"
       id="linearGradient6045">
      <stop
         style="stop-color:#000000;stop-opacity:1;"
         offset="0"
         id="stop6047" />
      <stop
         style="stop-color:#000000;stop-opacity:0;"
         offset="1"
         id="stop6049" />
    </linearGradient>
    <linearGradient
       inkscape:collect="always"
       xlink:href="#linearGradient6045"
       id="linearGradient6051"
       x1="-1465.7485"
       y1="1228.5141"
       x2="-1396.2158"
       y2="1228.5141"
       gradientUnits="userSpaceOnUse" />
    <clipPath
       clipPathUnits="userSpaceOnUse"
       id="clipPath6069">
      <rect
         style="opacity:1;fill:#c82624;fill-opacity:1;stroke:none;stroke-width:1.05967319;stroke-opacity:1"
         id="rect6071"
         width="46"
         height="46"
         x="-1468.8303"
         y="1190.6342"
         ry="2.4902143" />
    </clipPath>
    <clipPath
       clipPathUnits="userSpaceOnUse"
       id="clipPath6088">
      <rect
         style="opacity:1;fill:#000000;fill-opacity:1;stroke:none;stroke-opacity:1"
         id="rect6090"
         width="65.01075"
         height="23"
         x="-1475.8303"
         y="1213.6321"
         ry="0" />
    </clipPath>
  </defs>
  <metadata
     id="metadata3473">
    <rdf:RDF>
      <cc:Work
         rdf:about="">
        <dc:format>image/svg+xml</dc:format>
        <dc:type
           rdf:resource="http://purl.org/dc/dcmitype/StillImage" />
        <dc:title></dc:title>
      </cc:Work>
    </rdf:RDF>
  </metadata>
  <g
     transform="translate(1469.8303,-1189.6342)"
     id="layer1"
     inkscape:groupmode="layer"
     inkscape:label="bg"
     style="display:inline">
    <rect
       ry="3.0000448"
       y="1190.6342"
       x="-1468.8303"
       height="46"
       width="46"
       id="rect4312"
       style="opacity:1;fill:#c82624;fill-opacity:1;stroke:none;stroke-width:1.05967319;stroke-opacity:1" />
  </g>
  <g
     inkscape:groupmode="layer"
     id="layer2"
     inkscape:label="long-shadow"
     style="display:none"
     sodipodi:insensitive="true">
    <path
       transform="translate(1469.8303,-1189.6342)"
       style="opacity:0.2;fill:url(#linearGradient6051);fill-opacity:1;fill-rule:nonzero;stroke:none"
       d="m -1445.8303,1200.0893 c -1.2962,0.2247 -6.4209,-0.1071 -4.7202,2.2507 0.7809,1.3956 1.2434,3.0228 2.1714,4.3118 4.687,4.6556 9.2926,9.2763 13.8633,13.8242 -0.045,1.689 -0.1462,1.5295 -1.168,0.4043 -6.1482,-6.1113 -12.2497,-12.2763 -18.4004,-18.3828 -2.0606,0.9416 -3.7725,2.802 -5.0761,4.6681 0.4689,0.75 1.2997,1.2973 1.8808,1.9881 8.0897,8.0647 16.0859,16.0879 24.0957,24.0469 2.0292,2.0407 3.9425,4.1848 6.415,5.8113 0.889,0.4298 1.741,1.7845 2.6651,1.6243 0.8374,-2.105 1.8424,-1.9292 2.8418,-0.5254 1.2713,1.3774 2.6488,2.5961 3.9102,3.9733 1.0968,0.964 2.0648,2.1065 3.164,3.0657 0.6784,0.7992 1.502,1.4174 2.1374,2.2329 0.4318,0.3582 0.8747,0.7774 1.2169,1.2263 0.5123,0.3197 0.7823,0.8627 1.2902,1.1658 0.3995,0.5216 0.8637,0.9485 1.3496,1.3692 0.3729,0.5254 0.9151,0.8451 1.286,1.3885 0.4848,0.3952 0.9738,0.8628 1.3535,1.3604 0.6419,0.4252 0.9184,1.2779 1.9959,0.9874 2.4446,-0.033 4.9059,0.066 7.3401,-0.049 0.05,-2.7457 -0.7282,-5.5688 -1.4142,-8.254 -0.5973,-0.4899 -1.0525,-1.0147 -1.6043,-1.5739 -0.4722,-0.4131 -1.2817,-1.0131 -0.031,-1.214 1.7641,-1.2519 -1.3169,-4.3258 -1.6058,-6.1551 -0.8228,-0.7343 -1.5992,-1.5076 -2.33,-2.3301 0.8731,-1.5666 -2.5282,-3.2189 -3.3614,-4.6074 -9.3851,-9.3892 -18.7777,-18.7804 -28.1582,-28.1699 -0.968,-0.4189 -2.4683,-3.0958 -3.4182,-1.4039 -0.4257,0.6751 -0.9135,-0.5823 -1.363,-0.811 -0.7493,-0.7147 -1.3517,-1.6628 -2.54,-1.6901 -1.2171,-0.4143 -2.5066,-0.5425 -3.7862,-0.5325 z m -15.0879,9.7363 c -1.0378,1.7936 -1.9814,3.9414 -2.4629,5.9395 1.4244,1.403 2.8394,2.8296 4.2578,4.2343 -2.1931,-0.1398 -6.084,-2.9869 -5.776,1.1097 -0.3316,1.9691 -1.0374,4.1062 -0.8021,6.0544 3.6447,3.6006 7.4212,7.4003 10.9336,10.8613 1.2217,1.325 2.5661,2.5115 3.7478,3.815 1.0017,0.8599 1.8124,1.8635 2.8088,2.7085 0.651,0.8103 1.5104,1.445 2.1477,2.2523 0.9038,0.7231 1.5633,1.6283 2.4656,2.3395 0.7126,0.9128 1.6951,1.6135 2.3923,2.5227 0.5226,0.4733 1.0372,0.8719 1.4473,1.446 0.4929,0.3652 0.9589,0.8429 1.3247,1.3188 0.5825,0.3551 0.8448,0.9434 1.4275,1.275 0.486,0.5354 0.8625,1.3635 1.8775,1.1757 2.4854,-0.012 4.9741,0.024 7.4575,-0.018 -0.03,-2.0769 0.6253,-4.8772 0.1338,-6.7167 -0.6261,-0.7198 -1.3075,-1.3969 -2.0332,-2.0391 -0.137,-0.3961 -2.0531,-1.774 -0.9096,-1.2264 1.183,0.4094 2.3666,1.2314 3.5503,1.4012 -0.2376,-2.0439 2.5696,-4.8097 1.16,-6.2998 -0.9453,-1.0779 -2.0307,-2.0422 -3.0332,-3.0996 -1.2037,-1.1636 -2.3487,-2.3928 -3.5937,-3.5469 -1.4001,-1.5011 -2.8978,-2.9169 -4.3496,-4.3945 -4.7895,-4.7863 -10.0431,-10.0317 -15.1153,-15.1289 -1.076,-1.0405 -2.0897,-2.1645 -3.1875,-3.1738 -1.9593,-0.9285 -3.8958,-1.9196 -5.8691,-2.8106 z"
       id="path5227"
       inkscape:connector-curvature="0"
       clip-path="url(#clipPath6069)" />
  </g>
  <g
     inkscape:groupmode="layer"
     id="layer3"
     inkscape:label="shape"
     sodipodi:insensitive="true"
     style="display:inline">
    <path
       transform="translate(1469.8303,-1189.6342)"
       inkscape:connector-curvature="0"
       id="path14"
       d="m -1445.8304,1200.0879 c -2.2242,0 -3.2096,0.3017 -5.0128,0.9614 -0.3381,0.1236 -0.1757,0.3146 -0.1757,0.3146 l 2.4153,5.0476 c 0,0 0.073,0.1943 0.3667,0.1454 0.5643,-0.094 1.7605,-0.1541 2.4065,-0.1541 0.6458,0 1.8421,0.06 2.4067,0.1541 0.2947,0.048 0.3667,-0.1454 0.3667,-0.1454 l 2.4153,-5.0476 c 0,0 0.1626,-0.191 -0.1757,-0.3146 -1.8029,-0.6597 -2.7621,-0.9614 -5.013,-0.9614 z m -8.372,2.3849 c -0.059,0.012 -0.098,0.047 -0.098,0.047 -2.0681,1.2589 -3.3635,2.5928 -4.7872,4.4834 -0.1835,0.243 0.025,0.3667 0.025,0.3667 l 4.8631,3.6393 c 0,0 0.2038,0.2087 0.3929,-0.076 0.9517,-1.4351 2.0646,-2.6882 3.6023,-3.5177 0,0 0.2165,-0.1585 0.053,-0.371 l -3.8366,-4.4682 c -0.079,-0.101 -0.156,-0.1157 -0.2148,-0.1042 z m 16.7442,0 c -0.059,-0.011 -0.136,0 -0.2148,0.1042 l -3.8366,4.4682 c -0.1647,0.2125 0.053,0.371 0.053,0.371 1.5377,0.8295 2.6506,2.0826 3.6023,3.5177 0.189,0.2848 0.3927,0.076 0.3927,0.076 l 4.8632,-3.6392 c 0,0 0.2094,-0.1238 0.026,-0.3668 -1.4239,-1.8907 -2.717,-3.2246 -4.785,-4.4834 0,0 -0.041,-0.037 -0.1,-0.047 z m -23.4607,7.3522 c -0.1077,0.012 -0.1669,0.1067 -0.1669,0.1067 -0.5869,1.1535 -2.0482,4.6819 -2.3351,5.5662 -0.081,0.2492 0.1129,0.3212 0.1129,0.3212 l 6.4646,2.808 c 0,0 0.2199,0.1021 0.2821,-0.2213 0.3732,-1.9327 0.8554,-3.5272 1.6493,-5.4166 0,0 0.1363,-0.2481 -0.1368,-0.3535 l -5.7463,-2.7777 c -0.047,-0.025 -0.087,-0.035 -0.1238,-0.033 z m 30.1771,0 c -0.036,0 -0.077,0.012 -0.1236,0.033 l -5.7465,2.7778 c -0.2729,0.1055 -0.1367,0.3536 -0.1367,0.3536 0.7941,1.8893 1.2761,3.4839 1.6493,5.4165 0.062,0.3236 0.2821,0.2214 0.2821,0.2214 l 6.4647,-2.8081 c 0,0 0.1937,-0.073 0.1128,-0.3212 -0.287,-0.8843 -1.7481,-4.4126 -2.335,-5.5662 0,0 -0.059,-0.1 -0.1671,-0.1066 z m -33.4473,8.9429 c -0.1397,0.036 -0.1692,0.1844 -0.1692,0.1844 -1.1098,4.0719 -1.3993,6.9119 -1.4648,7.91 0,0 -0.077,0.3146 0.2734,0.3146 l 8.0487,0 c 0,0 0.2561,0.052 0.2561,-0.2995 0,-0.7901 -0.083,-3.0754 0.2974,-6.0719 0,0 0.099,-0.2471 -0.2322,-0.3493 0,0 -5.5149,-1.2704 -6.8293,-1.6753 -0.074,-0.022 -0.1335,-0.024 -0.1801,-0.014 z m 36.7177,0 c -0.046,-0.013 -0.1067,-0.012 -0.1803,0.014 -1.3146,0.4049 -6.8291,1.6753 -6.8291,1.6753 -0.3305,0.1021 -0.2322,0.3495 -0.2322,0.3495 0.3805,2.9963 0.2974,5.2816 0.2974,6.0717 0,0.3504 0.256,0.2996 0.256,0.2996 l 8.0488,0 c 0.3499,0 0.2734,-0.3147 0.2734,-0.3147 -0.065,-0.998 -0.3552,-3.8381 -1.4649,-7.9099 0,0 -0.029,-0.1489 -0.1691,-0.1844 z"
       style="fill:#ffffff;fill-opacity:1;fill-rule:nonzero;stroke:none" />
  </g>
  <g
     inkscape:groupmode="layer"
     id="layer4"
     inkscape:label="score"
     style="display:inline">
    <path
       style="opacity:0.2;fill:#000000;fill-opacity:1;stroke:none;stroke-width:1.05967319;stroke-opacity:1"
       d="m -1465.8303,1190.6342 39.9999,0 c 1.6621,0 3.0001,1.338 3.0001,3 l 0,39.9999 c 0,1.662 -1.338,3.0001 -3.0001,3.0001 l -39.9999,0 c -1.662,0 -3,-1.3381 -3,-3.0001 l 0,-39.9999 c 0,-1.662 1.338,-3 3,-3 z"
       id="rect6081"
       transform="matrix(-1,0,0,-1,-1421.8303,1237.6342)"
       clip-path="url(#clipPath6088)"
       inkscape:connector-curvature="0" />
  </g>
</svg>
